<svg width="1600" height="1000" xmlns="http://www.w3.org/2000/svg" viewBox="-3 0 100 1"
    style="background-color:#fafafa00">
    <path stroke-width=".5" fill="none" stroke="#66666630" d="M0-25h94v50H0zM4-3v6m86-6v6" />
    <circle r=".75" cx="5.25" fill="none" stroke-width=".5" stroke="#66666630" />
    <circle r=".75" cx="88.75" fill="none" stroke-width=".5" stroke="#66666630" />
    <path stroke-width=".5" fill="none" stroke="#66666630" d="M94-8H75V8h19M0-8h19V8H0m19-2a6 6 0 000-12" />
    <path stroke-width=".5" fill="none" stroke-dasharray="1 1" stroke="#66666630" d="M75 6a6 6 0 000-12M19-6a6 6 0 000 12" />
    <path stroke-width=".5" fill="none" stroke="#66666630"
        d="M75-6a6 6 0 000 12m19-28h-7.823M94 22h-7.823M0-22h7.823M0 22h7.823m0 0a22.15 22.15 0 000-44m78.354 0a22 22 0 000 44" />
    <circle r="6" cx="47" fill="none" stroke-width=".5" stroke="#66666630" />
    <path stroke-width=".5" fill="none" stroke="#66666630"
        d="M47-25v50M5.25 4a4 4 0 000-8m83.5 0a4 4 0 000 8M28-25v3m38-3v3M28 25v-3m38 3v-3" />
</svg>